<mxfile host="app.diagrams.net" modified="2020-03-30T17:48:27.878Z" agent="5.0 (Macintosh; Intel Mac OS X 10_15_3) AppleWebKit/537.36 (KHTML, like Gecko) Chrome/80.0.3987.132 Safari/537.36" etag="2tZrUE5Te1vKCLDes-Bo" version="12.9.5" type="github">
  <diagram id="GgLBWSP9z577dkZzpRKI" name="第 1 页">
    <mxGraphModel dx="3946" dy="1994" grid="1" gridSize="10" guides="1" tooltips="1" connect="1" arrows="1" fold="1" page="1" pageScale="1" pageWidth="2520" pageHeight="1200" math="0" shadow="0">
      <root>
        <mxCell id="tFehtdheYBfIyZKciGYD-0" />
        <mxCell id="tFehtdheYBfIyZKciGYD-1" parent="tFehtdheYBfIyZKciGYD-0" />
        <mxCell id="e5vrvYjgY6VipqgYh-gJ-124" value="" style="rounded=1;whiteSpace=wrap;html=1;shadow=0;comic=1;strokeWidth=1;gradientColor=#ffffff;fontColor=#333333;align=center;dashed=1;" parent="tFehtdheYBfIyZKciGYD-1" vertex="1">
          <mxGeometry x="-2420" y="-890" width="1230" height="590" as="geometry" />
        </mxCell>
        <mxCell id="e5vrvYjgY6VipqgYh-gJ-4" value="" style="edgeStyle=orthogonalEdgeStyle;rounded=0;orthogonalLoop=1;jettySize=auto;html=1;fontColor=#333333;comic=1;fillColor=#ffe6cc;strokeColor=#d79b00;" parent="tFehtdheYBfIyZKciGYD-1" source="e5vrvYjgY6VipqgYh-gJ-1" target="e5vrvYjgY6VipqgYh-gJ-2" edge="1">
          <mxGeometry relative="1" as="geometry" />
        </mxCell>
        <mxCell id="e5vrvYjgY6VipqgYh-gJ-14" value="commit" style="text;html=1;align=center;verticalAlign=middle;resizable=0;points=[];labelBackgroundColor=#ffffff;fontColor=#333333;" parent="e5vrvYjgY6VipqgYh-gJ-4" vertex="1" connectable="0">
          <mxGeometry x="-0.1143" y="-3" relative="1" as="geometry">
            <mxPoint y="-13" as="offset" />
          </mxGeometry>
        </mxCell>
        <mxCell id="e5vrvYjgY6VipqgYh-gJ-89" value="" style="edgeStyle=orthogonalEdgeStyle;rounded=0;comic=1;orthogonalLoop=1;jettySize=auto;html=1;startArrow=classic;startFill=1;endArrow=none;endFill=0;fontColor=#333333;align=left;fillColor=#ffe6cc;strokeColor=#d79b00;" parent="tFehtdheYBfIyZKciGYD-1" source="e5vrvYjgY6VipqgYh-gJ-1" edge="1">
          <mxGeometry relative="1" as="geometry">
            <mxPoint x="-2400" y="-705" as="targetPoint" />
          </mxGeometry>
        </mxCell>
        <mxCell id="e5vrvYjgY6VipqgYh-gJ-90" value="dispatch" style="text;html=1;align=center;verticalAlign=middle;resizable=0;points=[];labelBackgroundColor=#ffffff;fontColor=#333333;" parent="e5vrvYjgY6VipqgYh-gJ-89" vertex="1" connectable="0">
          <mxGeometry x="0.1485" y="-2" relative="1" as="geometry">
            <mxPoint y="-9" as="offset" />
          </mxGeometry>
        </mxCell>
        <mxCell id="e5vrvYjgY6VipqgYh-gJ-1" value="actions" style="rounded=0;whiteSpace=wrap;html=1;shadow=0;comic=1;fillColor=#d5e8d4;strokeColor=#82b366;" parent="tFehtdheYBfIyZKciGYD-1" vertex="1">
          <mxGeometry x="-2320" y="-720" width="130" height="30" as="geometry" />
        </mxCell>
        <mxCell id="e5vrvYjgY6VipqgYh-gJ-9" value="" style="edgeStyle=orthogonalEdgeStyle;rounded=0;orthogonalLoop=1;jettySize=auto;html=1;fontColor=#333333;comic=1;fillColor=#ffe6cc;strokeColor=#d79b00;" parent="tFehtdheYBfIyZKciGYD-1" source="e5vrvYjgY6VipqgYh-gJ-2" edge="1">
          <mxGeometry relative="1" as="geometry">
            <mxPoint x="-1910" y="-705" as="targetPoint" />
          </mxGeometry>
        </mxCell>
        <mxCell id="e5vrvYjgY6VipqgYh-gJ-13" value="update" style="text;html=1;align=center;verticalAlign=middle;resizable=0;points=[];labelBackgroundColor=#ffffff;fontColor=#333333;" parent="e5vrvYjgY6VipqgYh-gJ-9" vertex="1" connectable="0">
          <mxGeometry x="-0.2" y="-4" relative="1" as="geometry">
            <mxPoint y="-14" as="offset" />
          </mxGeometry>
        </mxCell>
        <mxCell id="e5vrvYjgY6VipqgYh-gJ-2" value="mutations" style="rounded=0;whiteSpace=wrap;html=1;shadow=0;comic=1;fillColor=#d5e8d4;strokeColor=#82b366;" parent="tFehtdheYBfIyZKciGYD-1" vertex="1">
          <mxGeometry x="-2120" y="-720" width="130" height="30" as="geometry" />
        </mxCell>
        <mxCell id="e5vrvYjgY6VipqgYh-gJ-16" value="notify" style="edgeStyle=orthogonalEdgeStyle;rounded=0;orthogonalLoop=1;jettySize=auto;html=1;fontColor=#333333;comic=1;fillColor=#ffe6cc;strokeColor=#d79b00;" parent="tFehtdheYBfIyZKciGYD-1" source="e5vrvYjgY6VipqgYh-gJ-6" edge="1">
          <mxGeometry relative="1" as="geometry">
            <mxPoint x="-1870" y="-610" as="targetPoint" />
          </mxGeometry>
        </mxCell>
        <mxCell id="e5vrvYjgY6VipqgYh-gJ-120" value="" style="edgeStyle=orthogonalEdgeStyle;rounded=0;comic=1;orthogonalLoop=1;jettySize=auto;html=1;startArrow=none;startFill=0;endArrow=classic;endFill=1;fontColor=#333333;align=left;" parent="tFehtdheYBfIyZKciGYD-1" source="e5vrvYjgY6VipqgYh-gJ-6" edge="1">
          <mxGeometry relative="1" as="geometry">
            <mxPoint x="-1870.0000000000002" y="-815" as="targetPoint" />
          </mxGeometry>
        </mxCell>
        <mxCell id="e5vrvYjgY6VipqgYh-gJ-6" value="state" style="shape=parallelogram;html=1;strokeWidth=1;perimeter=parallelogramPerimeter;whiteSpace=wrap;rounded=1;arcSize=12;size=0.23;shadow=0;comic=1;fillColor=#d5e8d4;strokeColor=#82b366;" parent="tFehtdheYBfIyZKciGYD-1" vertex="1">
          <mxGeometry x="-1920" y="-735" width="100" height="60" as="geometry" />
        </mxCell>
        <mxCell id="e5vrvYjgY6VipqgYh-gJ-86" value="" style="edgeStyle=orthogonalEdgeStyle;rounded=0;orthogonalLoop=1;jettySize=auto;html=1;startArrow=classic;startFill=1;endArrow=none;endFill=0;fontColor=#333333;align=left;comic=1;" parent="tFehtdheYBfIyZKciGYD-1" source="e5vrvYjgY6VipqgYh-gJ-18" edge="1">
          <mxGeometry relative="1" as="geometry">
            <mxPoint x="-2010" y="-595" as="targetPoint" />
          </mxGeometry>
        </mxCell>
        <mxCell id="e5vrvYjgY6VipqgYh-gJ-87" value="subscribe" style="text;html=1;align=center;verticalAlign=middle;resizable=0;points=[];labelBackgroundColor=#ffffff;fontColor=#333333;" parent="e5vrvYjgY6VipqgYh-gJ-86" vertex="1" connectable="0">
          <mxGeometry x="-0.0426" y="-2" relative="1" as="geometry">
            <mxPoint x="-11.18" y="-13" as="offset" />
          </mxGeometry>
        </mxCell>
        <mxCell id="e5vrvYjgY6VipqgYh-gJ-18" value="&lt;p class=&quot;p1&quot; style=&quot;margin: 0px; font-stretch: normal; font-size: 14px; line-height: normal; font-family: &amp;quot;helvetica neue&amp;quot;;&quot;&gt;_currentListeners&lt;/p&gt;" style="rounded=0;whiteSpace=wrap;html=1;shadow=0;comic=1;gradientColor=#ffffff;fontColor=#333333;" parent="tFehtdheYBfIyZKciGYD-1" vertex="1">
          <mxGeometry x="-1940" y="-610" width="130" height="30" as="geometry" />
        </mxCell>
        <mxCell id="e5vrvYjgY6VipqgYh-gJ-23" value="" style="edgeStyle=orthogonalEdgeStyle;rounded=0;orthogonalLoop=1;jettySize=auto;html=1;startArrow=none;startFill=0;endArrow=none;endFill=0;fontColor=#333333;comic=1;" parent="tFehtdheYBfIyZKciGYD-1" source="e5vrvYjgY6VipqgYh-gJ-22" target="e5vrvYjgY6VipqgYh-gJ-18" edge="1">
          <mxGeometry relative="1" as="geometry" />
        </mxCell>
        <mxCell id="e5vrvYjgY6VipqgYh-gJ-22" value="" style="strokeWidth=1;html=1;shape=mxgraph.flowchart.annotation_2;align=left;labelPosition=right;pointerEvents=1;rounded=1;shadow=0;comic=1;fillColor=#ffe6cc;strokeColor=#d79b00;" parent="tFehtdheYBfIyZKciGYD-1" vertex="1">
          <mxGeometry x="-1790" y="-697" width="90" height="200" as="geometry" />
        </mxCell>
        <mxCell id="e5vrvYjgY6VipqgYh-gJ-24" value="excute&amp;nbsp;&lt;br&gt;callback" style="text;html=1;align=center;verticalAlign=middle;resizable=0;points=[];autosize=1;fontColor=#333333;" parent="tFehtdheYBfIyZKciGYD-1" vertex="1">
          <mxGeometry x="-1810" y="-612" width="60" height="30" as="geometry" />
        </mxCell>
        <mxCell id="e5vrvYjgY6VipqgYh-gJ-25" value="" style="line;strokeWidth=1;html=1;rounded=1;shadow=0;comic=1;fillColor=#ffe6cc;strokeColor=#d79b00;" parent="tFehtdheYBfIyZKciGYD-1" vertex="1">
          <mxGeometry x="-1750" y="-602" width="60" height="10" as="geometry" />
        </mxCell>
        <mxCell id="e5vrvYjgY6VipqgYh-gJ-32" value="reaction" style="text;html=1;align=center;verticalAlign=middle;resizable=0;points=[];autosize=1;fontColor=#333333;" parent="tFehtdheYBfIyZKciGYD-1" vertex="1">
          <mxGeometry x="-1750" y="-519.5" width="60" height="20" as="geometry" />
        </mxCell>
        <mxCell id="e5vrvYjgY6VipqgYh-gJ-39" value="" style="edgeStyle=orthogonalEdgeStyle;rounded=0;orthogonalLoop=1;jettySize=auto;html=1;startArrow=none;startFill=0;endArrow=classic;endFill=1;fontColor=#333333;comic=1;fillColor=#ffe6cc;strokeColor=#d79b00;" parent="tFehtdheYBfIyZKciGYD-1" source="e5vrvYjgY6VipqgYh-gJ-37" edge="1">
          <mxGeometry relative="1" as="geometry">
            <mxPoint x="-1520" y="-497" as="targetPoint" />
          </mxGeometry>
        </mxCell>
        <mxCell id="e5vrvYjgY6VipqgYh-gJ-40" value="yes" style="text;html=1;align=center;verticalAlign=middle;resizable=0;points=[];labelBackgroundColor=#ffffff;fontColor=#333333;" parent="e5vrvYjgY6VipqgYh-gJ-39" vertex="1" connectable="0">
          <mxGeometry x="-0.075" y="-2" relative="1" as="geometry">
            <mxPoint y="-12" as="offset" />
          </mxGeometry>
        </mxCell>
        <mxCell id="e5vrvYjgY6VipqgYh-gJ-43" value="" style="edgeStyle=orthogonalEdgeStyle;rounded=0;orthogonalLoop=1;jettySize=auto;html=1;startArrow=none;startFill=0;endArrow=classic;endFill=1;fontColor=#333333;comic=1;fillColor=#ffe6cc;strokeColor=#d79b00;" parent="tFehtdheYBfIyZKciGYD-1" edge="1">
          <mxGeometry relative="1" as="geometry">
            <mxPoint x="-1640" y="-460" as="sourcePoint" />
            <mxPoint x="-1640" y="-420" as="targetPoint" />
          </mxGeometry>
        </mxCell>
        <mxCell id="e5vrvYjgY6VipqgYh-gJ-37" value="$spliceData?" style="rhombus;whiteSpace=wrap;html=1;rounded=1;shadow=0;comic=1;strokeWidth=1;gradientColor=#ffffff;fontColor=#333333;" parent="tFehtdheYBfIyZKciGYD-1" vertex="1">
          <mxGeometry x="-1680" y="-537" width="80" height="80" as="geometry" />
        </mxCell>
        <mxCell id="e5vrvYjgY6VipqgYh-gJ-51" value="" style="edgeStyle=orthogonalEdgeStyle;rounded=0;orthogonalLoop=1;jettySize=auto;html=1;startArrow=none;startFill=0;endArrow=classic;endFill=1;fontColor=#333333;comic=1;fillColor=#ffe6cc;strokeColor=#d79b00;" parent="tFehtdheYBfIyZKciGYD-1" source="e5vrvYjgY6VipqgYh-gJ-41" edge="1">
          <mxGeometry relative="1" as="geometry">
            <mxPoint x="-1463.5" y="-394.5" as="targetPoint" />
          </mxGeometry>
        </mxCell>
        <mxCell id="e5vrvYjgY6VipqgYh-gJ-41" value="(Page or Component&amp;nbsp;&lt;br&gt;)#$spliceData" style="rounded=1;whiteSpace=wrap;html=1;shadow=0;comic=1;strokeWidth=1;gradientColor=#ffffff;fontColor=#333333;" parent="tFehtdheYBfIyZKciGYD-1" vertex="1">
          <mxGeometry x="-1520" y="-519.5" width="113" height="45" as="geometry" />
        </mxCell>
        <mxCell id="e5vrvYjgY6VipqgYh-gJ-46" value="" style="edgeStyle=orthogonalEdgeStyle;rounded=0;orthogonalLoop=1;jettySize=auto;html=1;startArrow=none;startFill=0;endArrow=classic;endFill=1;fontColor=#333333;comic=1;fillColor=#ffe6cc;strokeColor=#d79b00;" parent="tFehtdheYBfIyZKciGYD-1" source="e5vrvYjgY6VipqgYh-gJ-44" target="e5vrvYjgY6VipqgYh-gJ-45" edge="1">
          <mxGeometry relative="1" as="geometry" />
        </mxCell>
        <mxCell id="e5vrvYjgY6VipqgYh-gJ-44" value="diffData = flatDeepDiff" style="rounded=1;whiteSpace=wrap;html=1;shadow=0;comic=1;strokeWidth=1;fillColor=#f8cecc;strokeColor=#b85450;" parent="tFehtdheYBfIyZKciGYD-1" vertex="1">
          <mxGeometry x="-1700" y="-420" width="123" height="30" as="geometry" />
        </mxCell>
        <mxCell id="e5vrvYjgY6VipqgYh-gJ-48" value="" style="edgeStyle=orthogonalEdgeStyle;rounded=0;orthogonalLoop=1;jettySize=auto;html=1;startArrow=none;startFill=0;endArrow=classic;endFill=1;entryX=0;entryY=0.5;entryDx=0;entryDy=0;entryPerimeter=0;fontColor=#333333;comic=1;fillColor=#ffe6cc;strokeColor=#d79b00;" parent="tFehtdheYBfIyZKciGYD-1" source="e5vrvYjgY6VipqgYh-gJ-45" target="e5vrvYjgY6VipqgYh-gJ-49" edge="1">
          <mxGeometry relative="1" as="geometry">
            <mxPoint x="-1537" y="-377" as="targetPoint" />
          </mxGeometry>
        </mxCell>
        <mxCell id="e5vrvYjgY6VipqgYh-gJ-45" value="setData" style="rounded=1;whiteSpace=wrap;html=1;shadow=0;comic=1;strokeWidth=1;fillColor=#ffcccc;strokeColor=#36393d;" parent="tFehtdheYBfIyZKciGYD-1" vertex="1">
          <mxGeometry x="-1700" y="-347" width="123" height="30" as="geometry" />
        </mxCell>
        <mxCell id="e5vrvYjgY6VipqgYh-gJ-49" value="refresh view" style="html=1;dashed=0;whitespace=wrap;shape=mxgraph.dfd.start;rounded=1;shadow=0;comic=1;strokeWidth=1;gradientColor=#ffffff;fontColor=#333333;" parent="tFehtdheYBfIyZKciGYD-1" vertex="1">
          <mxGeometry x="-1503.5" y="-393" width="80" height="30" as="geometry" />
        </mxCell>
        <mxCell id="e5vrvYjgY6VipqgYh-gJ-62" value="" style="endArrow=classic;html=1;fontColor=#333333;comic=1;fillColor=#ffe6cc;strokeColor=#d79b00;" parent="tFehtdheYBfIyZKciGYD-1" edge="1">
          <mxGeometry width="50" height="50" relative="1" as="geometry">
            <mxPoint x="-1708" y="-497" as="sourcePoint" />
            <mxPoint x="-1678" y="-497" as="targetPoint" />
          </mxGeometry>
        </mxCell>
        <mxCell id="e5vrvYjgY6VipqgYh-gJ-70" value="plugin" style="rounded=1;whiteSpace=wrap;html=1;shadow=0;comic=1;strokeWidth=1;fillColor=#d5e8d4;strokeColor=#82b366;" parent="tFehtdheYBfIyZKciGYD-1" vertex="1">
          <mxGeometry x="-1700" y="-715" width="120" height="35" as="geometry" />
        </mxCell>
        <mxCell id="e5vrvYjgY6VipqgYh-gJ-78" value="插件函数说明：&lt;br&gt;Store 在初始化时，会遍历外部设置的plugins 回调函数，将Store实例作为形参数传递给插件函数本身，这样插件的就可以基于store 本身的能力进行扩展，&lt;b&gt;中间件middleware就是一个典型例子&lt;/b&gt;" style="text;html=1;strokeColor=none;fillColor=none;align=left;verticalAlign=top;whiteSpace=wrap;rounded=0;shadow=0;comic=1;fontColor=#333333;" parent="tFehtdheYBfIyZKciGYD-1" vertex="1">
          <mxGeometry x="-1470" y="-751.25" width="267" height="107.5" as="geometry" />
        </mxCell>
        <mxCell id="e5vrvYjgY6VipqgYh-gJ-80" value="use or constructor" style="endArrow=classic;html=1;fontColor=#333333;entryX=0.328;entryY=-0.032;entryDx=0;entryDy=0;entryPerimeter=0;comic=1;" parent="tFehtdheYBfIyZKciGYD-1" edge="1">
          <mxGeometry width="50" height="50" relative="1" as="geometry">
            <mxPoint x="-1639.95" y="-798.88" as="sourcePoint" />
            <mxPoint x="-1640.5900000000001" y="-714.9999999999999" as="targetPoint" />
          </mxGeometry>
        </mxCell>
        <mxCell id="e5vrvYjgY6VipqgYh-gJ-81" value="watcher" style="rounded=1;whiteSpace=wrap;html=1;shadow=0;comic=1;strokeWidth=1;gradientColor=#ffffff;fontColor=#333333;" parent="tFehtdheYBfIyZKciGYD-1" vertex="1">
          <mxGeometry x="-1700" y="-615" width="120" height="35" as="geometry" />
        </mxCell>
        <mxCell id="e5vrvYjgY6VipqgYh-gJ-82" value="watcher 回调函数：&lt;br&gt;对外提供状态可监听能力，支持监听（嵌套）对象中的具体某个属性变化情况" style="text;html=1;strokeColor=none;fillColor=none;align=left;verticalAlign=top;whiteSpace=wrap;rounded=0;shadow=0;comic=1;fontColor=#333333;" parent="tFehtdheYBfIyZKciGYD-1" vertex="1">
          <mxGeometry x="-1560" y="-624" width="253" height="62" as="geometry" />
        </mxCell>
        <mxCell id="e5vrvYjgY6VipqgYh-gJ-99" value="hook" style="edgeStyle=orthogonalEdgeStyle;rounded=0;comic=1;orthogonalLoop=1;jettySize=auto;html=1;startArrow=none;startFill=0;endArrow=classic;endFill=1;fontColor=#333333;align=left;" parent="tFehtdheYBfIyZKciGYD-1" edge="1">
          <mxGeometry x="0.1492" y="10" relative="1" as="geometry">
            <mxPoint x="-2180" y="-590.9411764705883" as="sourcePoint" />
            <mxPoint x="-2140" y="-706" as="targetPoint" />
            <mxPoint y="-1" as="offset" />
          </mxGeometry>
        </mxCell>
        <mxCell id="e5vrvYjgY6VipqgYh-gJ-101" value="" style="edgeStyle=orthogonalEdgeStyle;rounded=0;comic=1;orthogonalLoop=1;jettySize=auto;html=1;startArrow=none;startFill=0;endArrow=classic;endFill=1;fontColor=#333333;align=left;" parent="tFehtdheYBfIyZKciGYD-1" edge="1">
          <mxGeometry relative="1" as="geometry">
            <mxPoint x="-2300" y="-598.9411764705883" as="sourcePoint" />
            <mxPoint x="-2340" y="-704" as="targetPoint" />
          </mxGeometry>
        </mxCell>
        <mxCell id="e5vrvYjgY6VipqgYh-gJ-102" value="hook" style="text;html=1;align=center;verticalAlign=middle;resizable=0;points=[];labelBackgroundColor=#ffffff;fontColor=#333333;" parent="e5vrvYjgY6VipqgYh-gJ-101" vertex="1" connectable="0">
          <mxGeometry x="0.0637" y="-3" relative="1" as="geometry">
            <mxPoint x="-3" y="-7.75" as="offset" />
          </mxGeometry>
        </mxCell>
        <mxCell id="e5vrvYjgY6VipqgYh-gJ-91" value="middleware" style="rounded=1;whiteSpace=wrap;html=1;shadow=0;comic=1;strokeWidth=1;gradientColor=#ffffff;fontColor=#333333;align=center;" parent="tFehtdheYBfIyZKciGYD-1" vertex="1">
          <mxGeometry x="-2300" y="-610" width="120" height="30" as="geometry" />
        </mxCell>
        <mxCell id="e5vrvYjgY6VipqgYh-gJ-105" value="" style="strokeWidth=1;html=1;shape=mxgraph.flowchart.annotation_1;align=left;pointerEvents=1;rounded=1;shadow=0;comic=1;gradientColor=#ffffff;fontColor=#333333;" parent="tFehtdheYBfIyZKciGYD-1" vertex="1">
          <mxGeometry x="-1570" y="-630" width="50" height="70" as="geometry" />
        </mxCell>
        <mxCell id="e5vrvYjgY6VipqgYh-gJ-106" value="1. devtools&lt;br&gt;&lt;br&gt;&lt;br&gt;2. logger" style="strokeWidth=1;html=1;shape=mxgraph.flowchart.annotation_2;align=left;labelPosition=right;pointerEvents=1;rounded=1;shadow=0;comic=1;fillColor=#ffe6cc;strokeColor=#d79b00;" parent="tFehtdheYBfIyZKciGYD-1" vertex="1">
          <mxGeometry x="-1580" y="-736" width="33" height="77" as="geometry" />
        </mxCell>
        <mxCell id="e5vrvYjgY6VipqgYh-gJ-118" value="getters" style="rounded=1;whiteSpace=wrap;html=1;shadow=0;comic=1;strokeWidth=1;align=center;fillColor=#d5e8d4;strokeColor=#82b366;" parent="tFehtdheYBfIyZKciGYD-1" vertex="1">
          <mxGeometry x="-1930" y="-860" width="120" height="40" as="geometry" />
        </mxCell>
        <mxCell id="e5vrvYjgY6VipqgYh-gJ-121" value="衍生：&lt;br&gt;某些场景 需要对state中的数据进行过滤等操作处理后返回，对于view层获取更为简单" style="text;html=1;strokeColor=none;fillColor=none;align=left;verticalAlign=middle;whiteSpace=wrap;rounded=0;shadow=0;comic=1;fontColor=#333333;" parent="tFehtdheYBfIyZKciGYD-1" vertex="1">
          <mxGeometry x="-1790" y="-850" width="230" height="20" as="geometry" />
        </mxCell>
        <mxCell id="e5vrvYjgY6VipqgYh-gJ-123" value="deps" style="rounded=1;whiteSpace=wrap;html=1;shadow=0;comic=1;strokeWidth=1;align=center;fillColor=#d5e8d4;strokeColor=#82b366;" parent="tFehtdheYBfIyZKciGYD-1" vertex="1">
          <mxGeometry x="-2460" y="-519.5" width="120" height="50" as="geometry" />
        </mxCell>
        <mxCell id="e5vrvYjgY6VipqgYh-gJ-125" value="&lt;b style=&quot;font-size: 20px;&quot;&gt;Store&lt;/b&gt;" style="text;html=1;strokeColor=none;fillColor=none;align=center;verticalAlign=middle;whiteSpace=wrap;rounded=0;shadow=0;comic=1;fontColor=#333333;fontSize=20;" parent="tFehtdheYBfIyZKciGYD-1" vertex="1">
          <mxGeometry x="-2370" y="-850" width="40" height="20" as="geometry" />
        </mxCell>
        <mxCell id="e5vrvYjgY6VipqgYh-gJ-126" value="&lt;div&gt;&lt;span style=&quot;font-size: 12px&quot;&gt;deps：&lt;/span&gt;&lt;/div&gt;&lt;font style=&quot;font-size: 12px&quot;&gt;&lt;div&gt;&lt;span&gt;多store时，提供store 之间通信接口能力&lt;br&gt;&lt;/span&gt;&lt;/div&gt;&lt;/font&gt;" style="text;html=1;strokeColor=none;fillColor=none;align=left;verticalAlign=top;whiteSpace=wrap;rounded=0;shadow=0;comic=1;fontSize=20;fontColor=#333333;" parent="tFehtdheYBfIyZKciGYD-1" vertex="1">
          <mxGeometry x="-2320" y="-524" width="120" height="94" as="geometry" />
        </mxCell>
        <mxCell id="e5vrvYjgY6VipqgYh-gJ-131" value="&lt;span style=&quot;font-size: 12px&quot;&gt;按一定的维度将state 拆分，多module 维护，隔离解耦&lt;/span&gt;" style="text;html=1;strokeColor=none;fillColor=none;align=center;verticalAlign=middle;whiteSpace=wrap;rounded=0;shadow=0;dashed=1;comic=1;fontSize=20;fontColor=#333333;" parent="tFehtdheYBfIyZKciGYD-1" vertex="1">
          <mxGeometry x="-2160" y="-557" width="190" height="20" as="geometry" />
        </mxCell>
        <mxCell id="4ZxsUp4TM34F3PMyM2pQ-2" value="" style="ellipse;whiteSpace=wrap;html=1;rounded=1;shadow=0;" vertex="1" parent="tFehtdheYBfIyZKciGYD-1">
          <mxGeometry x="-2180" y="-480" width="120" height="80" as="geometry" />
        </mxCell>
      </root>
    </mxGraphModel>
  </diagram>
</mxfile>
